<?xml version="1.0" encoding="utf-8"?>
<!-- Generator: Adobe Illustrator 16.0.0, SVG Export Plug-In . SVG Version: 6.00 Build 0)  -->
<!DOCTYPE svg PUBLIC "-//W3C//DTD SVG 1.1//EN" "http://www.w3.org/Graphics/SVG/1.1/DTD/svg11.dtd">
<svg version="1.1" id="圖層_1" xmlns="http://www.w3.org/2000/svg" xmlns:xlink="http://www.w3.org/1999/xlink" x="0px" y="0px"
	 width="512px" height="186px" viewBox="0 0 512 186" enable-background="new 0 0 512 186" xml:space="preserve">
<path fill="#231815" d="M500,134.363c0,15.466-14.414,28.004-32.197,28.004H51.197C33.415,162.367,19,149.829,19,134.363V51.636
	c0-15.466,14.415-28.003,32.197-28.003h416.606C485.586,23.633,500,36.17,500,51.636V134.363z"/>
<g>
	<path fill="#FFFFFF" d="M49.605,57.062h25.078c8.359,0,15.465,2.926,21.316,8.777c6.126,6.132,9.195,15.328,9.195,27.586
		c0,11.704-3.207,20.761-9.613,27.168c-5.296,5.297-12.265,7.941-20.898,7.941H49.605V57.062z M59.219,65.003v55.59h15.047
		c5.29,0,9.613-1.672,12.957-5.016c5.29-5.291,7.941-12.677,7.941-22.153c0-10.031-2.508-17.555-7.523-22.57
		c-3.905-3.899-8.359-5.852-13.375-5.852H59.219z"/>
	<path fill="#FFFFFF" d="M124.004,86.738c3.899-3.899,8.915-5.852,15.047-5.852c5.852,0,10.867,2.09,15.047,6.27
		c3.899,3.905,5.852,9.894,5.852,17.973h-33.855c0,5.852,1.391,10.174,4.18,12.957c2.508,2.508,5.708,3.762,9.613,3.762
		c3.899,0,6.688-0.836,8.359-2.508c1.946-1.947,2.926-4.18,2.926-6.688h9.195c-1.117,5.016-2.926,8.777-5.434,11.285
		c-3.625,3.625-8.64,5.434-15.047,5.434c-6.688,0-12.121-2.09-16.301-6.27c-4.46-4.455-6.688-10.449-6.688-17.973
		S119.263,91.479,124.004,86.738z M130.273,91.335c-1.953,1.953-3.207,4.323-3.762,7.106h23.824c0-2.783-1.117-5.291-3.344-7.524
		c-1.953-1.946-4.741-2.926-8.359-2.926C135.289,87.992,132.5,89.108,130.273,91.335z"/>
	<path fill="#FFFFFF" d="M171.234,81.722h36.782v7.105l-28.422,33.02h30.512v6.688h-40.543v-7.105l28.422-33.02h-26.75V81.722z"/>
	<path fill="#FFFFFF" d="M220.555,81.722h8.359v31.348c0,3.344,0.836,5.852,2.508,7.523c1.391,1.396,3.344,2.09,5.852,2.09
		c3.618,0,6.824-1.391,9.613-4.18c4.18-4.18,6.27-8.497,6.27-12.957V81.722h8.359v46.813h-8.359v-8.359
		c-4.461,6.133-9.895,9.195-16.301,9.195c-5.852,0-10.031-1.254-12.539-3.762s-3.762-5.709-3.762-9.613V81.722z"/>
	<path fill="#FFFFFF" d="M275.309,57.062h9.613v32.602l32.602-32.602h12.121l-28.422,28.422l28.84,43.051h-11.285l-24.242-36.364
		l-9.613,9.614v26.75h-9.613V57.062z"/>
	<path fill="#FFFFFF" d="M333.406,56.644h10.031l22.152,58.098l22.152-58.098h10.031l-28.422,72.309h-7.523L333.406,56.644z"/>
	<path fill="#FFFFFF" d="M406.969,57.062h12.957l19.227,55.59l19.227-55.59h12.957v71.473h-9.613V73.781l-19.227,54.754h-6.688
		l-19.227-54.754v54.754h-9.613V57.062z"/>
</g>
</svg>
