<?xml version="1.0" encoding="utf-8"?>
<!-- Generator: Adobe Illustrator 16.0.0, SVG Export Plug-In . SVG Version: 6.00 Build 0)  -->
<!DOCTYPE svg PUBLIC "-//W3C//DTD SVG 1.1//EN" "http://www.w3.org/Graphics/SVG/1.1/DTD/svg11.dtd">
<svg version="1.1" id="圖層_1" xmlns="http://www.w3.org/2000/svg" xmlns:xlink="http://www.w3.org/1999/xlink" x="0px" y="0px"
	 width="2048px" height="512px" viewBox="0 0 2048 512" enable-background="new 0 0 2048 512" xml:space="preserve">
<g>
	<path fill="#0A6EF5" d="M576.913,154.73h68.14c72.278,0,120.04,35.025,120.04,117.495c0,82.467-47.762,119.719-116.857,119.719
		h-71.323V154.73z M641.549,346.092c38.211,0,65.273-17.51,65.273-73.867c0-56.359-27.063-71.962-65.273-71.962h-7.641v145.83
		H641.549z"/>
	<path fill="#0A6EF5" d="M794.389,301.199c0-58.587,42.348-94.885,85.97-94.885c52.222,0,77.692,37.89,77.692,87.243
		c0,10.188-1.274,20.061-2.547,24.518H849.156c5.095,24.836,22.288,35.025,45.214,35.025c13.056,0,25.154-3.82,38.211-11.465
		l18.784,34.07c-18.784,13.373-43.622,20.697-64.636,20.697C834.508,396.402,794.389,361.377,794.389,301.199z M909.971,280.818
		c0-17.83-7.959-31.203-28.656-31.203c-15.602,0-29.293,9.871-33.113,31.203H909.971z"/>
	<path fill="#0A6EF5" d="M982.256,361.697l73.551-106.668h-65.273v-44.258h135.962v30.248l-73.551,106.667h76.098v44.258H982.256
		V361.697z"/>
	<path fill="#0A6EF5" d="M1154.842,322.85V210.771h56.676v105.075c0,24.836,6.686,32.158,21.014,32.158
		c12.738,0,20.695-5.094,30.248-18.467V210.771h56.68v181.172h-46.172l-4.137-24.834h-1.275
		c-14.965,17.832-31.842,29.293-56.357,29.293C1171.715,396.402,1154.842,368.064,1154.842,322.85z"/>
	<path fill="#0A6EF5" d="M1369.451,154.73h56.996v93.932h0.953l67.186-93.932h62.408l-71.645,95.204l85.018,142.009h-62.092
		l-56.041-97.113l-25.787,35.025v62.088h-56.996V154.73z"/>
	<path fill="#0A6EF5" d="M1557.951,154.73h60.184l27.063,108.258c7.006,25.473,11.781,49.672,18.467,75.783h1.592
		c7.008-26.111,11.781-50.311,18.469-75.783l26.746-108.258h57.949l-71.002,237.213h-68.461L1557.951,154.73z"/>
	<path fill="#0A6EF5" d="M1792.941,154.73h61.453l37.574,102.528c4.773,13.691,8.594,28.656,13.051,42.986h1.596
		c4.775-14.33,8.596-29.295,13.053-42.986l36.299-102.528h61.773v237.213h-51.9v-81.191c0-23.563,4.457-58.908,7.641-82.15h-1.592
		l-19.742,56.675l-31.842,86.607h-31.203l-32.158-86.607l-19.105-56.675h-1.273c2.865,23.242,7.322,58.587,7.322,82.15v81.191
		h-50.945V154.73z"/>
</g>
<path fill="#0A6EF5" d="M512,417c0,54.676-44.791,99-100.042,99H100.042C44.79,516,0,471.676,0,417V103C0,48.324,44.79,4,100.042,4
	h311.916C467.209,4,512,48.324,512,103V417z"/>
<circle fill="none" stroke="#FFFFFF" stroke-width="70" stroke-miterlimit="10" cx="256" cy="260" r="173"/>
<polygon fill="#0A6EF5" points="195.561,174.517 120.721,68.667 233.953,45.676 245.063,153.666 "/>
<polygon fill="#0A6EF5" points="242.833,389.995 233.137,482.274 131.266,436.419 176.432,372.54 "/>
<circle fill="#FFFFFF" cx="177.615" cy="195.633" r="21.115"/>
<circle fill="#FFFFFF" cx="257.385" cy="229.261" r="21.115"/>
<polygon fill="#FFFFFF" points="438.65,212.109 371.779,118.573 486.219,107.43 "/>
<polygon fill="#FFFFFF" points="363.44,119.377 256,97.143 328.977,15.213 "/>
</svg>
