<?xml version="1.0" encoding="utf-8"?>
<!-- Generator: Adobe Illustrator 16.0.0, SVG Export Plug-In . SVG Version: 6.00 Build 0)  -->
<!DOCTYPE svg PUBLIC "-//W3C//DTD SVG 1.1//EN" "http://www.w3.org/Graphics/SVG/1.1/DTD/svg11.dtd">
<svg version="1.1" xmlns="http://www.w3.org/2000/svg" xmlns:xlink="http://www.w3.org/1999/xlink" x="0px" y="0px" width="512px"
	 height="512px" viewBox="0 0 512 512" enable-background="new 0 0 512 512" xml:space="preserve">
<g id="圖層_1">
	<path fill="#0A6EF5" d="M512,413c0,54.676-44.791,99-100.042,99H100.042C44.79,512,0,467.676,0,413V99C0,44.324,44.79,0,100.042,0
		h311.916C467.209,0,512,44.324,512,99V413z"/>
	<circle fill="none" stroke="#FFFFFF" stroke-width="70" stroke-miterlimit="10" cx="256" cy="256" r="173"/>
	<polygon fill="#0A6EF5" points="195.561,170.517 120.721,64.667 233.954,41.676 245.062,149.666 	"/>
	<polygon fill="#0A6EF5" points="242.833,385.995 233.136,478.274 131.266,432.419 176.431,368.54 	"/>
	<circle fill="#FFFFFF" cx="177.615" cy="191.632" r="21.115"/>
	<circle fill="#FFFFFF" cx="257.385" cy="225.261" r="21.115"/>
	<polygon fill="#FFFFFF" points="438.65,208.109 371.779,114.573 486.219,103.43 	"/>
	<polygon fill="#FFFFFF" points="363.44,115.377 256,93.143 328.977,11.213 	"/>
</g>
<g id="圖層_2" display="none">
	<line display="inline" fill="none" stroke="#E4007F" stroke-miterlimit="10" x1="75" y1="0" x2="75" y2="512"/>
	<line display="inline" fill="none" stroke="#E4007F" stroke-miterlimit="10" x1="75" y1="0" x2="256" y2="256"/>
	<line display="inline" fill="none" stroke="#E4007F" stroke-miterlimit="10" x1="256" y1="256" x2="75" y2="512"/>
	<line display="inline" fill="none" stroke="#E60012" stroke-miterlimit="10" x1="256" y1="256" x2="229.667" y2="0"/>
	<line display="inline" fill="none" stroke="#E60012" stroke-miterlimit="10" x1="229.667" y1="0" x2="229.667" y2="512"/>
	<line display="inline" fill="none" stroke="#E60012" stroke-miterlimit="10" x1="256" y1="256" x2="229.667" y2="512"/>
</g>
</svg>
